<svg width="439" height="439" viewBox="0 0 439 439" fill="none" xmlns="http://www.w3.org/2000/svg">
<path d="M366.91 87.3767C392.105 101.926 407.643 128.831 407.643 157.93V281.101C407.643 310.216 392.105 337.105 366.91 351.655L260.217 413.256C235.022 427.806 203.963 427.806 178.767 413.256L72.0744 351.655C46.879 337.105 31.3572 310.216 31.3572 281.101V157.93C31.3572 128.831 46.879 101.926 72.0744 87.3767L178.767 25.7913C203.963 11.2416 235.022 11.2416 260.217 25.7913L366.91 87.3767ZM193.05 53.7462L89.1484 113.732C72.78 123.187 62.7143 140.637 62.7143 159.545V279.502C62.7143 298.395 72.78 315.861 89.1484 325.315L193.05 385.285C209.419 394.739 229.566 394.739 245.934 385.285L349.836 325.315C366.204 315.861 376.286 298.395 376.286 279.502V159.545C376.286 140.637 366.204 123.187 349.836 113.732L245.934 53.7462C229.566 44.292 209.419 44.292 193.05 53.7462ZM241.215 87.267L323.198 134.585C336.635 142.346 344.929 156.692 344.929 172.229V266.881C344.929 282.402 336.635 296.748 323.198 304.509L241.215 351.843C227.778 359.604 211.206 359.604 197.77 351.843L115.786 304.509C102.35 296.748 94.0715 282.402 94.0715 266.881V172.229C94.0715 156.692 102.35 142.346 115.786 134.585L197.77 87.267C211.206 79.5061 227.778 79.5061 241.215 87.267ZM172.464 266.583H266.536V172.511H172.464V266.583Z" fill="#434343"/>
</svg>
